<?xml version="1.0" encoding="UTF-8"?>
<svg xmlns="http://www.w3.org/2000/svg" xmlns:xlink="http://www.w3.org/1999/xlink" width="360pt" height="360pt" viewBox="0 0 360 360" version="1.1">
<g id="surface1">
<path style="fill-rule:nonzero;fill:rgb(100%,100%,100%);fill-opacity:1;stroke-width:3;stroke-linecap:butt;stroke-linejoin:miter;stroke:rgb(29.019608%,29.019608%,29.019608%);stroke-opacity:1;stroke-miterlimit:4;" d="M 5.5 44.5 L 174.5 44.5 C 176.708984 44.5 178.5 46.291016 178.5 48.5 L 178.5 167.5 C 178.5 169.708984 176.708984 171.5 174.5 171.5 L 5.5 171.5 C 3.291016 171.5 1.5 169.708984 1.5 167.5 L 1.5 48.5 C 1.5 46.291016 3.291016 44.5 5.5 44.5 Z M 5.5 44.5 " transform="matrix(2,0,0,2,0,0)"/>
<path style="fill:none;stroke-width:3;stroke-linecap:square;stroke-linejoin:miter;stroke:rgb(29.019608%,29.019608%,29.019608%);stroke-opacity:1;stroke-miterlimit:4;" d="M 1.5 66.25 L 178.5 66.25 " transform="matrix(2,0,0,2,0,0)"/>
<path style=" stroke:none;fill-rule:nonzero;fill:rgb(0%,100%,0%);fill-opacity:1;" d="M 84 111 C 84 114.867188 80.867188 118 77 118 C 73.132812 118 70 114.867188 70 111 C 70 107.132812 73.132812 104 77 104 C 80.867188 104 84 107.132812 84 111 Z M 84 111 "/>
<path style=" stroke:none;fill-rule:nonzero;fill:rgb(100%,100%,0%);fill-opacity:1;" d="M 58 111 C 58 114.867188 54.867188 118 51 118 C 47.132812 118 44 114.867188 44 111 C 44 107.132812 47.132812 104 51 104 C 54.867188 104 58 107.132812 58 111 Z M 58 111 "/>
<path style=" stroke:none;fill-rule:nonzero;fill:rgb(100%,0%,0%);fill-opacity:1;" d="M 32 111 C 32 114.867188 28.867188 118 25 118 C 21.132812 118 18 114.867188 18 111 C 18 107.132812 21.132812 104 25 104 C 28.867188 104 32 107.132812 32 111 Z M 32 111 "/>
<path style="fill:none;stroke-width:3;stroke-linecap:round;stroke-linejoin:miter;stroke:rgb(29.019608%,29.019608%,29.019608%);stroke-opacity:1;stroke-miterlimit:4;" d="M 39.75 100 C 41.164062 104.021484 45.121094 106.033203 51.625 106.033203 C 58.128906 106.033203 62.085938 104.021484 63.5 100 " transform="matrix(2,0,0,2,0,0)"/>
<path style="fill:none;stroke-width:3;stroke-linecap:round;stroke-linejoin:miter;stroke:rgb(29.019608%,29.019608%,29.019608%);stroke-opacity:1;stroke-miterlimit:4;" d="M 125.75 100 C 127.103516 104.021484 130.896484 106.033203 137.125 106.033203 C 143.355469 106.033203 147.146484 104.021484 148.5 100 " transform="matrix(2,0,0,2,0,0)"/>
<path style="fill:none;stroke-width:3;stroke-linecap:round;stroke-linejoin:miter;stroke:rgb(29.019608%,29.019608%,29.019608%);stroke-opacity:1;stroke-miterlimit:4;" d="M 89.25 110.25 C 90.083984 113.583984 92.416016 115.25 96.25 115.25 C 100.083984 115.25 102.416016 113.583984 103.25 110.25 " transform="matrix(2,0,0,2,0,0)"/>
<path style=" stroke:none;fill-rule:nonzero;fill:rgb(29.019608%,29.019608%,29.019608%);fill-opacity:1;" d="M 268.621094 37.308594 C 267.09375 37.308594 266 36.472656 266 34.90625 C 266 33.519531 267.3125 32.5 268.621094 32.5 L 282.9375 32.5 C 284.871094 32.5 286 33.59375 286 35.125 C 286 35.851562 285.746094 36.578125 285.273438 37.234375 L 273.542969 53.628906 L 283.121094 53.628906 C 284.578125 53.628906 285.671875 54.464844 285.671875 55.960938 C 285.671875 57.34375 284.503906 58.4375 283.121094 58.4375 L 269.789062 58.4375 C 267.675781 58.4375 266.730469 57.089844 266.730469 55.8125 C 266.730469 55.011719 267.058594 54.101562 267.53125 53.484375 L 279.1875 37.308594 Z M 268.621094 37.308594 "/>
<path style=" stroke:none;fill-rule:nonzero;fill:rgb(29.019608%,29.019608%,29.019608%);fill-opacity:1;" d="M 300.722656 23.578125 C 299.429688 23.578125 298.5 22.867188 298.5 21.539062 C 298.5 20.363281 299.613281 19.5 300.722656 19.5 L 312.867188 19.5 C 314.507812 19.5 315.464844 20.425781 315.464844 21.726562 C 315.464844 22.34375 315.25 22.960938 314.847656 23.515625 L 304.898438 37.421875 L 313.023438 37.421875 C 314.257812 37.421875 315.183594 38.132812 315.183594 39.398438 C 315.183594 40.574219 314.195312 41.5 313.023438 41.5 L 301.714844 41.5 C 299.921875 41.5 299.117188 40.355469 299.117188 39.277344 C 299.117188 38.597656 299.398438 37.824219 299.796875 37.296875 L 309.6875 23.578125 Z M 300.722656 23.578125 "/>
<path style=" stroke:none;fill-rule:nonzero;fill:rgb(29.019608%,29.019608%,29.019608%);fill-opacity:1;" d="M 328.335938 14.367188 C 327.265625 14.367188 326.5 13.78125 326.5 12.683594 C 326.5 11.714844 327.417969 11 328.335938 11 L 338.359375 11 C 339.710938 11 340.5 11.765625 340.5 12.835938 C 340.5 13.347656 340.320312 13.855469 339.988281 14.316406 L 331.777344 25.789062 L 338.484375 25.789062 C 339.503906 25.789062 340.269531 26.375 340.269531 27.421875 C 340.269531 28.390625 339.453125 29.15625 338.484375 29.15625 L 329.152344 29.15625 C 327.671875 29.15625 327.011719 28.210938 327.011719 27.320312 C 327.011719 26.757812 327.238281 26.121094 327.570312 25.6875 L 335.730469 14.367188 Z M 328.335938 14.367188 "/>
</g>
</svg>
