<svg xmlns="http://www.w3.org/2000/svg" viewBox="0 0 647.01 647.01">
    <defs>
        <style>.cls-1{fill:#fff;}.cls-2{fill:#5f567c;}</style>
    </defs>
    <g id="Calque_3" data-name="Calque 3">
        <g id="head">
            <rect class="cls-1" width="647.01" height="647.01" rx="99.35"/>
            <rect class="cls-2" x="88.31" y="156.19" width="470.39" height="334.63" rx="104.54"/>
            <path class="cls-2" d="M12.17,275.35h144a0,0,0,0,1,0,0V314.3a70.21,70.21,0,0,1-70.21,70.21H82.38A70.21,70.21,0,0,1,12.17,314.3V275.35A0,0,0,0,1,12.17,275.35Z" transform="translate(414.08 245.79) rotate(90)"/>
            <path class="cls-2" d="M490.88,275.35h144a0,0,0,0,1,0,0V314.3a70.21,70.21,0,0,1-70.21,70.21H561.1a70.21,70.21,0,0,1-70.21-70.21V275.35a0,0,0,0,1,0,0Z" transform="translate(232.93 892.79) rotate(-90)"/>
            <rect class="cls-1" x="129.78" y="188.9" width="387.45" height="275.63" rx="104.54"/>
            <path class="cls-2" d="M352.47,318.17a5,5,0,0,0-5,4.12,24.35,24.35,0,0,1-48,0,5,5,0,0,0-5-4.12h0a5,5,0,0,0-5,5.86,34.47,34.47,0,0,0,67.93,0,5,5,0,0,0-5-5.86Z"/>
            <circle class="cls-2" cx="221.97" cy="304.58" r="46.62"/>
            <circle class="cls-2" cx="425.03" cy="304.58" r="46.62"/>
        </g>
    </g>
</svg>
