<svg xmlns="http://www.w3.org/2000/svg" viewBox="0 0 669.45 687.57">
    <defs>
        <style>.cls-1{fill:#9e8ac4;}.cls-2{fill:#5f567c;}.cls-3{fill:#fff;}</style>
    </defs>
    <g id="Calque_3" data-name="Calque 3">
        <g id="Calque_9" data-name="Calque 9">
            <circle class="cls-1" cx="332.49" cy="344.52" r="246.32"/>
            <rect class="cls-1" x="527.17" y="85.05" width="30.26" height="77.87" rx="15.13" transform="translate(246.51 -347.15) rotate(45)"/>
            <rect class="cls-1" x="615.38" y="293.55" width="30.26" height="77.87" rx="15.13" transform="translate(963 -298.02) rotate(90)"/>
            <rect class="cls-1" x="23.81" y="298.02" width="30.26" height="77.87" rx="15.13" transform="translate(-298.02 375.89) rotate(-90)"/>
            <rect class="cls-1" x="108.86" y="88.21" width="30.26" height="77.87" rx="15.13" transform="translate(-53.59 124.92) rotate(-45)"/>
            <rect class="cls-1" x="317.36" width="30.26" height="77.87" rx="15.13"/>
            <rect class="cls-2" x="73.58" y="319.2" width="517.81" height="368.37" rx="104.54"/>
            <path class="cls-2" d="M-10.23,450.38H148.23a0,0,0,0,1,0,0v40.93A79.23,79.23,0,0,1,69,570.55h0a79.23,79.23,0,0,1-79.23-79.23V450.38A0,0,0,0,1-10.23,450.38Z" transform="translate(579.47 441.47) rotate(90)"/>
            <path class="cls-2" d="M516.75,450.38H675.21a0,0,0,0,1,0,0v40.93A79.23,79.23,0,0,1,596,570.55h0a79.23,79.23,0,0,1-79.23-79.23V450.38a0,0,0,0,1,0,0Z" transform="translate(85.51 1106.45) rotate(-90)"/>
            <rect class="cls-3" x="119.23" y="355.22" width="426.51" height="303.42" rx="104.54"/>
            <path class="cls-2" d="M364.38,497.52a5.52,5.52,0,0,0-5.47,4.54,26.81,26.81,0,0,1-52.84,0,5.52,5.52,0,0,0-5.47-4.54h0a5.55,5.55,0,0,0-5.5,6.45,37.94,37.94,0,0,0,74.78,0,5.55,5.55,0,0,0-5.5-6.45Z"/>
            <circle class="cls-2" cx="220.72" cy="482.55" r="51.32"/>
            <circle class="cls-2" cx="444.26" cy="482.55" r="51.32"/>
            <rect class="cls-1" x="317.36" width="30.26" height="77.87" rx="15.13"/>
        </g>
    </g>
</svg>
