<svg xmlns="http://www.w3.org/2000/svg" viewBox="0 0 757.45 589.37">
    <defs>
        <style>.cls-1{fill:#9e8ac4;}.cls-2{fill:#5f567c;}.cls-3{fill:#fff;}</style>
    </defs>
    <g id="Calque_3" data-name="Calque 3">
        <g id="Calque_11" data-name="Calque 11">
            <path class="cls-1" d="M753.42,352.26A169.79,169.79,0,0,0,636.47,226.72a12.85,12.85,0,0,1-8.92-9.69A169.57,169.57,0,0,0,461.65,82.48h-.07a12.86,12.86,0,0,1-10.71-5.64A169.36,169.36,0,0,0,306.62,2C214.14,3.87,139.87,80.48,140.7,173c0,2.94.12,5.85.3,8.75a12.93,12.93,0,0,1-10,13.4A169.57,169.57,0,0,0,.19,352.26c-.12,2.64-.19,5.31-.19,8v45.58a84.82,84.82,0,0,0,84.9,84.89H672.56l2.07,0c39.06-.94,71.78-29.57,79.49-67.88a171.3,171.3,0,0,0-.7-70.55Z"/>
            <rect class="cls-2" x="119.82" y="221" width="517.81" height="368.37" rx="104.54"/>
            <path class="cls-2" d="M36,352.18H194.47a0,0,0,0,1,0,0v40.93a79.23,79.23,0,0,1-79.23,79.23h0A79.23,79.23,0,0,1,36,393.12V352.18A0,0,0,0,1,36,352.18Z" transform="translate(527.5 297.03) rotate(90)"/>
            <path class="cls-2" d="M563,352.18H721.45a0,0,0,0,1,0,0v40.93a79.23,79.23,0,0,1-79.23,79.23h0A79.23,79.23,0,0,1,563,393.12V352.18A0,0,0,0,1,563,352.18Z" transform="translate(229.95 1054.48) rotate(-90)"/>
            <rect class="cls-3" x="165.47" y="257.02" width="426.51" height="303.42" rx="104.54"/>
            <path class="cls-2" d="M346.84,437.25a5.54,5.54,0,0,0,5.47-4.54,26.81,26.81,0,0,1,52.84,0,5.52,5.52,0,0,0,5.47,4.54h0a5.54,5.54,0,0,0,5.49-6.45,37.94,37.94,0,0,0-74.77,0,5.55,5.55,0,0,0,5.5,6.45Z"/>
            <path class="cls-2" d="M215.65,448.17a12.5,12.5,0,0,1-5.6-23.68l80.28-40.14-80.28-40.14a12.5,12.5,0,0,1,11.18-22.36l102.64,51.32a12.5,12.5,0,0,1,0,22.36L221.23,446.85A12.39,12.39,0,0,1,215.65,448.17Z"/>
            <path class="cls-2" d="M541.8,448.17a12.45,12.45,0,0,1-5.58-1.32L433.59,395.53a12.5,12.5,0,0,1,0-22.36l102.63-51.32a12.5,12.5,0,0,1,11.18,22.36l-80.27,40.14,80.27,40.14a12.5,12.5,0,0,1-5.6,23.68Z"/>
        </g>
    </g>
</svg>
