<svg xmlns="http://www.w3.org/2000/svg" viewBox="0 0 647.14 589.37">
	<defs>
		<style>.cls-1{fill:#c1b5ea;}.cls-2{fill:#9e8ac4;}.cls-3{fill:#5f567c;}.cls-4{fill:#fff;}</style>
	</defs>
	<g id="Calque_3" data-name="Calque 3">
		<g id="Calque_10" data-name="Calque 10">
			<path class="cls-1" d="M432.89,22.94A245.38,245.38,0,0,0,329,0C192.92,0,82.63,110.28,82.63,246.32S192.92,492.64,329,492.64A246.36,246.36,0,0,0,432.89,22.94Z"/>
			<path class="cls-2" d="M432.89,469.7A245.38,245.38,0,0,1,329,492.64c-136,0-246.32-110.28-246.32-246.32S192.92,0,329,0A245.38,245.38,0,0,1,432.89,22.94a246.42,246.42,0,0,0,0,446.76Z"/>
			<rect class="cls-3" x="64.67" y="221" width="517.81" height="368.37" rx="104.54"/>
			<path class="cls-3" d="M-19.15,352.18H139.32a0,0,0,0,1,0,0v40.93a79.23,79.23,0,0,1-79.23,79.23h0a79.23,79.23,0,0,1-79.23-79.23V352.18A0,0,0,0,1-19.15,352.18Z" transform="translate(472.35 352.18) rotate(90)"/>
			<path class="cls-3" d="M507.83,352.18H666.29a0,0,0,0,1,0,0v40.93a79.23,79.23,0,0,1-79.23,79.23h0a79.23,79.23,0,0,1-79.23-79.23V352.18a0,0,0,0,1,0,0Z" transform="translate(174.8 999.33) rotate(-90)"/>
			<rect class="cls-4" x="110.32" y="257.02" width="426.51" height="303.42" rx="104.54"/>
			<path class="cls-3" d="M271.94,364.23a10.42,10.42,0,0,0-10.32,8.55,50.54,50.54,0,0,1-99.63,0,10.43,10.43,0,0,0-10.32-8.55h0a10.46,10.46,0,0,0-10.36,12.16,71.54,71.54,0,0,0,141,0,10.45,10.45,0,0,0-10.36-12.15Z"/>
			<path class="cls-3" d="M495.47,364.23a10.41,10.41,0,0,0-10.31,8.55,50.55,50.55,0,0,1-99.64,0,10.41,10.41,0,0,0-10.31-8.55h0a10.47,10.47,0,0,0-10.37,12.16,71.54,71.54,0,0,0,141,0,10.47,10.47,0,0,0-10.37-12.15Z"/>
			<circle class="cls-3" cx="323.57" cy="435.76" r="17.47"/><path class="cls-4" d="M425.34,204.4H359.81a10,10,0,0,1-7.07-17.08l48.46-48.46H357.94a10,10,0,1,1,0-20h67.4a10,10,0,0,1,7.07,17.07L384,184.4h41.39a10,10,0,0,1,0,20Z"/>
			<path class="cls-4" d="M294,109.09H246.77a7.2,7.2,0,0,1-5.1-12.29l34.9-34.9H245.42a7.2,7.2,0,1,1,0-14.4H294a7.2,7.2,0,0,1,5.1,12.29l-34.9,34.9H294a7.2,7.2,0,0,1,0,14.4Z"/>
		</g>
	</g>
</svg>
